<svg width="24" height="24" viewBox="0 0 24 24" fill="none" xmlns="http://www.w3.org/2000/svg">
<g clip-path="url(#clip0_1_348)">
<path d="M5.23745 9.11847C4.78117 9.11847 4.41064 9.48466 4.41064 9.93559C4.41064 10.3865 4.78117 10.7527 5.23745 10.7527C5.69373 10.7527 6.06425 10.3865 6.06425 9.93559C6.06425 9.48466 5.69373 9.11847 5.23745 9.11847Z" fill="white"/>
<path d="M13.4004 10.7911C13.8919 10.7911 14.2903 10.3973 14.2903 9.91159C14.2903 9.42586 13.8919 9.0321 13.4004 9.0321C12.9089 9.0321 12.5105 9.42586 12.5105 9.91159C12.5105 10.3973 12.9089 10.7911 13.4004 10.7911Z" fill="white"/>
<path d="M20.7899 1H3.21014C1.4368 1 0 2.41997 0 4.17255V14.4834C0 16.2359 1.4368 17.6559 3.21014 17.6559H9.41846L11.53 22.573C11.53 22.573 11.6756 23 12.0267 23C12.3778 23 12.5234 22.573 12.5234 22.573L14.6349 17.6559H20.7866C22.56 17.6559 23.9968 16.2359 23.9968 14.4834V4.17255C23.9968 2.41997 22.56 1 20.7866 1H20.7899ZM7.53995 10.1147C7.53024 12 5.55788 12.0528 5.55788 12.0528C4.79579 12.0528 4.3654 11.5539 4.3654 11.5539V11.8929H2.93022V6.04027C2.93022 6.04027 2.92375 6.03867 2.93022 6.03707V6.04027C3.01921 6.05466 4.3654 6.03707 4.3654 6.03707V8.27577C4.70357 7.7065 5.67923 7.71609 5.67923 7.71609C7.8053 7.91118 7.53995 10.1147 7.53995 10.1147ZM10.0689 7.89519V11.9025H8.66285V7.93516C8.66285 7.39468 7.9849 7.24597 7.9849 7.24597V5.84678C10.2291 5.93633 10.0673 7.89519 10.0673 7.89519H10.0689ZM13.4004 12.056C12.0995 12.056 11.0446 11.0965 11.0446 9.91162C11.0446 8.7267 12.0995 7.76726 13.4004 7.76726C14.7013 7.76726 15.7562 8.7267 15.7562 9.91162C15.7562 11.0965 14.7013 12.056 13.4004 12.056ZM21.1005 12.056C21.1005 12.056 21.1199 14.0916 19.0278 14.0916H18.3903V12.7724H18.7738C18.7738 12.7724 19.654 12.8523 19.6427 11.5123C19.6427 11.5123 19.4712 12.0544 18.2366 12.0544C18.2366 12.0544 16.4876 11.9296 16.4876 10.2426V9.60299C16.4876 9.60299 16.528 7.85361 18.4486 7.71449C18.4486 7.71449 19.2074 7.63454 19.6718 8.25498V7.82483H21.0973V12.0544L21.1005 12.056Z" fill="white"/>
<path d="M18.8661 10.7703C19.3459 10.7703 19.7349 10.3859 19.7349 9.91162C19.7349 9.43737 19.3459 9.05292 18.8661 9.05292C18.3862 9.05292 17.9972 9.43737 17.9972 9.91162C17.9972 10.3859 18.3862 10.7703 18.8661 10.7703Z" fill="white"/>
</g>
<defs>
<clipPath id="clip0_1_348">
<rect width="24" height="22" fill="white" transform="translate(0 1)"/>
</clipPath>
</defs>
</svg>
