<svg width="24" height="24" viewBox="0 0 24 24" fill="none" xmlns="http://www.w3.org/2000/svg">
<g clip-path="url(#clip0_1_345)">
<path d="M12.9165 2.63215C7.35485 2.23946 2.76125 6.83306 3.15394 12.3947C3.48271 17.2257 7.70188 20.8696 12.5421 20.8696H15.9119C16.4142 20.8696 16.8252 20.4586 16.8252 19.9563C16.8252 19.4541 16.4142 19.0431 15.9119 19.0431H12.5603C9.15393 19.0431 6.03065 16.833 5.18133 13.5362C3.82061 8.23945 8.75211 3.29882 14.0489 4.66868C17.3548 5.50886 19.5649 8.63214 19.5649 12.0385V13.0431C19.5649 13.7646 18.9165 14.4769 18.195 14.4769C17.4736 14.4769 16.8252 13.7646 16.8252 13.0431V11.9015C16.8252 9.60931 15.1996 7.54539 12.9348 7.22575C9.82973 6.77826 7.20873 9.46319 7.76581 12.5865C8.07631 14.3308 9.43704 15.7737 11.1631 16.1846C12.8434 16.5773 14.4416 16.0385 15.4918 14.97C16.3046 16.0842 17.9302 16.6687 19.4188 16.0751C20.6425 15.591 21.3914 14.3399 21.3914 13.0248V12.0294C21.3914 7.18009 17.7475 2.96092 12.9165 2.63215ZM12.259 14.4769C10.743 14.4769 9.51923 13.2531 9.51923 11.7372C9.51923 10.2212 10.743 8.99744 12.259 8.99744C13.7749 8.99744 14.9987 10.2212 14.9987 11.7372C14.9987 13.2531 13.7749 14.4769 12.259 14.4769Z" fill="white"/>
</g>
<defs>
<clipPath id="clip0_1_345">
<rect width="24" height="24" fill="white"/>
</clipPath>
</defs>
</svg>
