<svg width="156" height="32" viewBox="0 0 156 32" fill="none" xmlns="http://www.w3.org/2000/svg">
<path d="M34.0645 22.7098V8.25815H42.3225V11.0452H36.9863V14.2235H41.5639V17.0323H36.9863V22.7098H34.0645Z" fill="white"/>
<path d="M45.4193 22.7102V8.25854H48.5161V22.7102H45.4193Z" fill="white"/>
<path d="M55.7418 15.0481V23.4082H52.645V8.25854H52.9547L61.9353 16.8694V8.59273H65.0321V23.7424H64.7224L55.7418 15.0425V15.0481Z" fill="white"/>
<path d="M68.1289 22.7102V8.25854H73.522C77.4206 8.25854 80.516 11.5183 80.516 15.4844C80.516 19.4504 77.4259 22.7102 73.522 22.7102H68.1289ZM71.1605 11.0456V19.9231H73.3039C75.6867 19.9231 77.4684 17.9183 77.4684 15.4844C77.4684 13.0504 75.692 11.0456 73.3039 11.0456H71.1605Z" fill="white"/>
<path d="M92.9032 11.3552V12.9479H90.7815V19.6133H88.8313V12.9479H86.7096V11.3552H92.8973H92.9032Z" fill="white"/>
<path d="M99.3548 19.6132V16.31H95.7419V19.6132H93.9354V11.3551H95.7419V14.6584H99.3548V11.3551H101.161V19.6132H99.3548Z" fill="white"/>
<path d="M103.226 19.6132V11.3551H108.387V12.9478H105.03V14.5511H107.917V16.1437H105.03V18.0206H108.387V19.6132H103.226Z" fill="white"/>
<path d="M124.603 12.237C123.97 11.5919 123.075 11.1618 121.809 11.1618C119.305 11.1618 117.653 13.4821 117.653 16.0005C117.653 18.5189 119.224 20.8392 121.729 20.8392C122.603 20.8392 123.337 20.6468 123.911 20.3016V17.4436H121.262V14.5177H126.968V21.6768C125.927 22.7068 124.136 23.7424 121.487 23.7424C117.23 23.7424 114.581 20.2789 114.581 16.0005C114.581 11.722 117.251 8.25854 121.793 8.25854C123.504 8.25854 125.075 8.71129 126.276 9.87145L124.603 12.237Z" fill="white"/>
<path d="M135.859 8.25879L142.452 23.7427H139.216L138.45 21.7958H133.034L132.267 23.7427H129.032L135.625 8.25879H135.87H135.859ZM134.018 19.3138H137.455L135.737 15.0728L134.018 19.3138Z" fill="white"/>
<path d="M144.522 22.7104V8.25879H150.923C153.629 8.25879 155.871 10.4863 155.871 13.2136C155.871 15.941 153.635 18.1685 150.923 18.1685H147.595V22.7104H144.516H144.522ZM147.601 10.9427V15.4846H150.518C151.749 15.4846 152.776 14.4741 152.776 13.2136C152.776 11.9532 151.749 10.9427 150.518 10.9427H147.601Z" fill="white"/>
<path d="M22.7097 13.4193H16.5161V19.6128H22.7097V13.4193Z" fill="#3CDC84"/>
<path d="M23.7419 6.24473V0H0V3.90334V6.24473V32H7.12258V19.5105H13.4517V13.2689H7.12258V6.24473H23.7419Z" fill="#3CDC84"/>
</svg>
