<svg width="20" height="20" viewBox="0 0 20 20" fill="none" xmlns="http://www.w3.org/2000/svg">
<path d="M9.99951 2.00002C14.4178 2.00002 17.9995 5.58174 17.9995 10C17.9995 14.4183 14.4178 18 9.99951 18C5.58123 18 1.99951 14.4183 1.99951 10C1.99951 5.58174 5.58123 2.00002 9.99951 2.00002ZM13.9458 6.13673C13.6529 5.84384 13.1781 5.84384 12.8853 6.13673L9.91553 9.10646L6.9458 6.13673C6.65291 5.84384 6.17815 5.84384 5.88525 6.13673C5.59253 6.42964 5.59242 6.90444 5.88525 7.19728L8.85498 10.167L5.88525 13.1367C5.59253 13.4296 5.59242 13.9044 5.88525 14.1973C6.1781 14.49 6.65294 14.49 6.9458 14.1973L9.91553 11.2276L12.8853 14.1973C13.1781 14.49 13.6529 14.49 13.9458 14.1973C14.2386 13.9044 14.2386 13.4296 13.9458 13.1367L10.9761 10.167L13.9458 7.19728C14.2386 6.90443 14.2386 6.42964 13.9458 6.13673Z" fill="#C8C8C8"/>
</svg>
