<svg width="24" height="24" viewBox="0 0 24 24" fill="none" xmlns="http://www.w3.org/2000/svg">
<path d="M12.0005 8.87555C10.2802 8.87555 8.87626 10.2795 8.87626 11.9998C8.87626 13.7201 10.2802 15.124 12.0005 15.124C13.7208 15.124 15.1247 13.7201 15.1247 11.9998C15.1247 10.2795 13.7208 8.87555 12.0005 8.87555ZM21.3708 11.9998C21.3708 10.706 21.3825 9.42399 21.3099 8.13258C21.2372 6.63258 20.895 5.30133 19.7981 4.20446C18.6989 3.10524 17.37 2.76539 15.87 2.69274C14.5763 2.62008 13.2942 2.6318 12.0028 2.6318C10.7091 2.6318 9.42704 2.62008 8.13563 2.69274C6.63563 2.76539 5.30438 3.10758 4.20751 4.20446C3.10829 5.30368 2.76845 6.63258 2.69579 8.13258C2.62313 9.42633 2.63485 10.7084 2.63485 11.9998C2.63485 13.2912 2.62313 14.5756 2.69579 15.867C2.76845 17.367 3.11063 18.6982 4.20751 19.7951C5.30673 20.8943 6.63563 21.2341 8.13563 21.3068C9.42938 21.3795 10.7114 21.3677 12.0028 21.3677C13.2966 21.3677 14.5786 21.3795 15.87 21.3068C17.37 21.2341 18.7013 20.892 19.7981 19.7951C20.8974 18.6959 21.2372 17.367 21.3099 15.867C21.3849 14.5756 21.3708 13.2935 21.3708 11.9998ZM12.0005 16.8068C9.34032 16.8068 7.19345 14.6599 7.19345 11.9998C7.19345 9.33961 9.34032 7.19274 12.0005 7.19274C14.6606 7.19274 16.8075 9.33961 16.8075 11.9998C16.8075 14.6599 14.6606 16.8068 12.0005 16.8068ZM17.0044 8.11852C16.3833 8.11852 15.8817 7.61696 15.8817 6.99586C15.8817 6.37477 16.3833 5.87321 17.0044 5.87321C17.6255 5.87321 18.127 6.37477 18.127 6.99586C18.1272 7.14334 18.0983 7.28941 18.042 7.4257C17.9856 7.56199 17.9029 7.68583 17.7986 7.79011C17.6943 7.8944 17.5705 7.97709 17.4342 8.03344C17.2979 8.08979 17.1519 8.1187 17.0044 8.11852Z" fill="white"/>
</svg>
