<svg width="24" height="24" viewBox="0 0 24 24" fill="none" xmlns="http://www.w3.org/2000/svg">
<path d="M12 2.6087C17.799 2.6087 22.5 6.2727 22.5 10.7937C22.5 15.3137 17.799 18.9777 12 18.9777C11.4226 18.978 10.8457 18.9413 10.273 18.8677L5.865 21.7507C5.364 22.0157 5.187 21.9867 5.393 21.3377L6.285 17.6597C3.405 16.1997 1.5 13.6697 1.5 10.7937C1.5 6.2737 6.201 2.6087 12 2.6087ZM17.907 10.6687L19.377 9.2447C19.4618 9.15661 19.5091 9.03904 19.509 8.91675C19.5088 8.79446 19.4612 8.677 19.3762 8.58911C19.2912 8.50123 19.1753 8.44977 19.0531 8.44559C18.9309 8.44141 18.8118 8.48483 18.721 8.5667L16.793 10.4327V8.8907C16.793 8.76552 16.7433 8.64547 16.6548 8.55695C16.5662 8.46843 16.4462 8.4187 16.321 8.4187C16.1958 8.4187 16.0758 8.46843 15.9872 8.55695C15.8987 8.64547 15.849 8.76552 15.849 8.8907V11.4477C15.8313 11.5206 15.8313 11.5968 15.849 11.6697V13.1087C15.849 13.2339 15.8987 13.3539 15.9872 13.4425C16.0758 13.531 16.1958 13.5807 16.321 13.5807C16.4462 13.5807 16.5662 13.531 16.6548 13.4425C16.7433 13.3539 16.793 13.2339 16.793 13.1087V11.7457L17.22 11.3327L18.648 13.3657C18.6837 13.4165 18.729 13.4597 18.7813 13.4929C18.8337 13.5262 18.8921 13.5488 18.9532 13.5595C19.0143 13.5702 19.0769 13.5687 19.1374 13.5552C19.198 13.5417 19.2552 13.5164 19.306 13.4807C19.3568 13.4451 19.4 13.3997 19.4332 13.3474C19.4665 13.295 19.4891 13.2366 19.4998 13.1755C19.5105 13.1144 19.509 13.0518 19.4955 12.9913C19.482 12.9307 19.4567 12.8735 19.421 12.8227L17.907 10.6677V10.6687ZM14.949 12.5927H13.489V8.9057C13.4834 8.78441 13.4313 8.66994 13.3435 8.58608C13.2557 8.50222 13.1389 8.45542 13.0175 8.45542C12.8961 8.45542 12.7793 8.50222 12.6915 8.58608C12.6037 8.66994 12.5516 8.78441 12.546 8.9057V13.0647C12.546 13.3247 12.756 13.5367 13.017 13.5367H14.949C15.0742 13.5367 15.1942 13.487 15.2828 13.3985C15.3713 13.3099 15.421 13.1899 15.421 13.0647C15.421 12.9395 15.3713 12.8195 15.2828 12.731C15.1942 12.6424 15.0742 12.5927 14.949 12.5927ZM9.092 11.5007L9.788 9.7937L10.426 11.5007H9.092ZM11.615 11.9887L11.617 11.9727C11.6168 11.8538 11.5714 11.7394 11.49 11.6527L10.444 8.85271C10.4002 8.71927 10.3166 8.6024 10.2046 8.5177C10.0926 8.433 9.95733 8.38451 9.817 8.3787C9.67564 8.37808 9.53744 8.42052 9.42079 8.50037C9.30414 8.58022 9.21457 8.6937 9.164 8.8257L7.503 12.9007C7.47956 12.9581 7.46765 13.0195 7.46796 13.0815C7.46826 13.1435 7.48077 13.2048 7.50478 13.262C7.52878 13.3191 7.56381 13.371 7.60785 13.4146C7.6519 13.4582 7.70411 13.4928 7.7615 13.5162C7.81889 13.5396 7.88033 13.5516 7.94232 13.5512C8.00431 13.5509 8.06563 13.5384 8.12279 13.5144C8.17994 13.4904 8.23181 13.4554 8.27543 13.4113C8.31904 13.3673 8.35356 13.3151 8.377 13.2577L8.707 12.4447H10.777L11.076 13.2447C11.0963 13.3045 11.1285 13.3596 11.1705 13.4068C11.2125 13.4539 11.2635 13.4922 11.3206 13.5192C11.3777 13.5463 11.4396 13.5617 11.5027 13.5644C11.5658 13.5671 11.6288 13.5571 11.688 13.535C11.7471 13.5129 11.8013 13.4792 11.8472 13.4358C11.8931 13.3924 11.9298 13.3402 11.9551 13.2824C11.9805 13.2245 11.994 13.1622 11.9948 13.099C11.9957 13.0359 11.9838 12.9732 11.96 12.9147L11.615 11.9887ZM8.293 8.9107C8.293 8.7857 8.24341 8.66579 8.15511 8.5773C8.06681 8.48881 7.94701 8.43897 7.822 8.4387H4.577C4.45182 8.4387 4.33176 8.48843 4.24325 8.57695C4.15473 8.66547 4.105 8.78552 4.105 8.9107C4.105 9.03589 4.15473 9.15594 4.24325 9.24446C4.33176 9.33298 4.45182 9.3827 4.577 9.3827H5.737V13.1187C5.737 13.2439 5.78673 13.3639 5.87525 13.4525C5.96376 13.541 6.08382 13.5907 6.209 13.5907C6.33418 13.5907 6.45424 13.541 6.54275 13.4525C6.63127 13.3639 6.681 13.2439 6.681 13.1187V9.3827H7.821C7.94618 9.3827 8.06624 9.33298 8.15475 9.24446C8.24327 9.15594 8.293 9.03589 8.293 8.9107Z" fill="white"/>
</svg>
