<svg width="24" height="24" viewBox="0 0 24 24" fill="none" xmlns="http://www.w3.org/2000/svg">
<path d="M20.625 2.6087H3.375C2.96016 2.6087 2.625 2.94386 2.625 3.3587V20.6087C2.625 21.0235 2.96016 21.3587 3.375 21.3587H20.625C21.0398 21.3587 21.375 21.0235 21.375 20.6087V3.3587C21.375 2.94386 21.0398 2.6087 20.625 2.6087ZM8.18672 18.586H5.40469V9.63761H8.18672V18.586ZM6.79688 8.41417C6.47795 8.41417 6.16619 8.3196 5.90102 8.14242C5.63584 7.96523 5.42917 7.71339 5.30712 7.41875C5.18507 7.1241 5.15314 6.79988 5.21536 6.48709C5.27758 6.17429 5.43115 5.88697 5.65667 5.66146C5.88218 5.43595 6.1695 5.28237 6.48229 5.22016C6.79509 5.15794 7.11931 5.18987 7.41395 5.31192C7.7086 5.43396 7.96044 5.64064 8.13762 5.90582C8.3148 6.17099 8.40937 6.48275 8.40937 6.80167C8.40703 7.6923 7.68516 8.41417 6.79688 8.41417ZM18.6023 18.586H15.8227V14.2337C15.8227 13.1954 15.8039 11.8618 14.3766 11.8618C12.9305 11.8618 12.7078 12.9915 12.7078 14.1587V18.586H9.93047V9.63761H12.5977V10.861H12.6352C13.0055 10.1579 13.9125 9.41495 15.2672 9.41495C18.0844 9.41495 18.6023 11.2689 18.6023 13.6782V18.586Z" fill="white"/>
</svg>
